<svg width="148" height="33" viewBox="0 0 148 33" fill="none" xmlns="http://www.w3.org/2000/svg">
<path d="M0.456763 0L0 1.25388C2.27238 1.70856 4.31628 2.33605 6.14127 3.10955C4.14576 4.20471 2.82978 6.07713 2.82978 8.20415C2.82978 9.14873 3.08958 10.0431 3.55263 10.8417C1.5061 12.2568 0.269556 14.2743 0.269556 16.9223C0.269556 21.8339 4.28917 26.0759 10.1036 28.1106L7.22324 32.9999H9.13433L11.7224 28.607C12.0047 28.6819 12.2898 28.7523 12.5787 28.8169C12.9126 29.0087 13.2527 29.1817 13.598 29.3372L12.3759 33H14.1842L15.2108 29.9202C15.8538 30.0971 16.509 30.2137 17.171 30.2681V32.9999H18.924V30.2651C19.6623 30.2021 20.3918 30.061 21.1051 29.8442L22.1567 32.9999H23.9622L22.7016 29.2184C23.0205 29.064 23.3347 28.8946 23.6429 28.7081C23.9439 28.6339 24.2421 28.5538 24.5374 28.468L27.2067 32.9999H29.1178L26.1352 27.9366C31.6901 25.8404 35.49 21.6976 35.49 16.9223C35.49 14.3432 34.3166 12.3623 32.3648 10.9533C32.8697 10.1266 33.156 9.19328 33.156 8.20422C33.156 6.08477 31.8496 4.21826 29.8664 3.12143C31.7083 2.33383 33.7543 1.70314 36 1.25381L35.5432 0C33.0803 0.492825 30.8337 1.19836 28.8137 2.08471C25.6169 0.775511 21.574 0.127584 17.5387 0.131059C13.7019 0.134394 9.87313 0.726937 6.78505 1.89945C4.88793 1.10767 2.78016 0.464889 0.456951 6.9452e-05L0.456763 0ZM17.5392 1.48709C20.9576 1.48403 24.3818 1.95302 27.1138 2.90108C22.8827 5.11726 19.8058 8.19623 18.002 11.7812C16.1893 8.15829 13.0647 4.98106 8.56961 2.71832C11.1777 1.90223 14.3556 1.48973 17.5393 1.48681L17.5392 1.48709ZM9.69783 6.23834C11.5174 6.23834 13.0115 7.34484 13.0115 8.69274C13.0115 10.0408 11.5174 11.1474 9.69783 11.1474C7.87828 11.1474 6.384 10.0406 6.384 8.69253C6.384 7.34456 7.87828 6.23814 9.69783 6.23814V6.23834ZM26.5277 6.23834C28.3473 6.23834 29.8414 7.34484 29.8414 8.69274C29.8414 10.0408 28.3473 11.1474 26.5277 11.1474C24.708 11.1474 23.2138 10.0409 23.2138 8.69281C23.2138 7.34484 24.7079 6.23841 26.5275 6.23841L26.5277 6.23834ZM16.1752 11.8455C16.5553 12.5645 16.8808 13.3048 17.1529 14.0632L17.9999 16.4233L18.8468 14.0632C19.1146 13.3151 19.4404 12.5791 19.8227 11.8589C21.1723 13.3509 23.3254 14.3179 25.7537 14.3179C27.108 14.3179 28.3765 14.0159 29.4686 13.4912C29.0931 18.4146 27.6922 22.1585 25.7788 24.7081C23.5312 27.7034 20.6813 29.0355 17.9438 29.0051C15.2066 28.9746 12.3345 27.5686 10.0838 24.5526C8.16744 21.9846 6.76732 18.2628 6.39272 13.432C7.51231 13.9939 8.82632 14.3178 10.2323 14.3178C12.6677 14.3178 14.8265 13.3449 16.1752 11.8453V11.8455ZM4.42639 11.9947C4.467 12.0371 4.50742 12.0795 4.54925 12.1209C4.75231 17.7729 6.27407 22.1314 8.54973 25.181C8.87993 25.6244 9.24115 26.0546 9.6319 26.4701C5.06238 24.5061 2.02242 20.9599 2.02242 16.9225C2.02242 14.697 2.88774 13.1364 4.42648 11.9948L4.42639 11.9947ZM31.4647 12.0939C32.9213 13.2263 33.7369 14.761 33.7369 16.9225C33.7369 20.8397 30.8748 24.2943 26.5311 26.2901C26.8076 25.9808 27.0677 25.6636 27.311 25.3393C29.5773 22.3193 31.0934 17.9629 31.3091 12.2423C31.3616 12.1932 31.4144 12.1443 31.4648 12.0939H31.4647ZM9.18967 16.1975C8.83767 16.6327 8.61792 17.2072 8.61792 17.8124C8.61792 19.2067 9.75232 20.3082 11.1334 20.3082C12.3086 20.3082 13.3238 19.5031 13.5917 18.3996C13.1516 18.6844 12.6095 18.8402 12.0482 18.8402C10.5495 18.8402 9.28862 17.6855 9.18967 16.1975ZM26.6266 16.3696C26.5275 17.8576 25.267 19.0123 23.7681 19.0123C23.2068 19.0123 22.6649 18.8565 22.2245 18.5717C22.4926 19.6753 23.5076 20.4804 24.6828 20.4804C26.0639 20.4804 27.141 19.3789 27.141 17.9846C27.141 17.3793 26.9786 16.8048 26.6267 16.3696H26.6265H26.6266ZM20.1803 18.3827C19.8511 19.2926 18.8384 19.9935 17.8796 19.9935C16.9432 19.9935 15.9466 19.2947 15.634 18.4295C15.5577 18.6656 15.4697 18.918 15.4697 19.1797C15.4697 20.5157 16.5567 21.5709 17.8799 21.5709C19.2031 21.5709 20.2901 20.5157 20.2901 19.1797C20.2901 18.9027 20.2657 18.6307 20.1805 18.3827H20.1803V18.3827ZM23.4668 23.0181C23.1446 24.1683 22.1342 25.0343 20.8922 25.0343C20.1194 25.0343 19.4148 24.7146 18.9203 24.1902C18.9895 25.4637 20.0519 26.4877 21.3305 26.4877C22.6536 26.4877 23.7405 25.3855 23.7405 24.0496C23.7405 23.6739 23.6183 23.3354 23.4667 23.0181L23.4668 23.0181ZM12.6211 23.1117C12.4998 23.4014 12.4568 23.7156 12.4568 24.0497C12.4568 25.3855 13.5438 26.4877 14.8669 26.4877C16.1456 26.4877 17.1531 25.4636 17.2223 24.1902C16.7279 24.7145 16.0233 25.0342 15.2504 25.0342C14.039 25.0342 12.9699 24.2187 12.6212 23.1117L12.6211 23.1117Z" fill="black"/>
<path d="M64.9 12C65.9667 12 66.9083 12.2083 67.725 12.625C68.5583 13.0417 69.2083 13.6833 69.675 14.55C70.1417 15.4 70.375 16.5 70.375 17.85V25.5H67.25V18.25C67.25 17.0667 66.9917 16.1833 66.475 15.6C65.9583 15.0167 65.2167 14.725 64.25 14.725C63.5667 14.725 62.9583 14.875 62.425 15.175C61.9083 15.475 61.5 15.9167 61.2 16.5C60.9167 17.0833 60.775 17.825 60.775 18.725V25.5H57.65V18.25C57.65 17.0667 57.3917 16.1833 56.875 15.6C56.3583 15.0167 55.6167 14.725 54.65 14.725C53.9667 14.725 53.3583 14.875 52.825 15.175C52.3083 15.475 51.9 15.9167 51.6 16.5C51.3167 17.0833 51.175 17.825 51.175 18.725V25.5H48.05V12.15H51.025V15.7L50.5 14.65C50.95 13.7833 51.6 13.125 52.45 12.675C53.3167 12.225 54.3 12 55.4 12C56.65 12 57.7333 12.3083 58.65 12.925C59.5833 13.5417 60.2 14.475 60.5 15.725L59.275 15.3C59.7083 14.3 60.425 13.5 61.425 12.9C62.425 12.3 63.5833 12 64.9 12ZM82.5934 25.5V22.8L82.4184 22.225V17.5C82.4184 16.5833 82.1434 15.875 81.5934 15.375C81.0434 14.8583 80.21 14.6 79.0934 14.6C78.3434 14.6 77.6017 14.7167 76.8684 14.95C76.1517 15.1833 75.5434 15.5083 75.0434 15.925L73.8184 13.65C74.535 13.1 75.385 12.6917 76.3684 12.425C77.3684 12.1417 78.4017 12 79.4684 12C81.4017 12 82.8934 12.4667 83.9434 13.4C85.01 14.3167 85.5434 15.7417 85.5434 17.675V25.5H82.5934ZM78.3934 25.675C77.3934 25.675 76.5184 25.5083 75.7684 25.175C75.0184 24.825 74.435 24.35 74.0184 23.75C73.6184 23.1333 73.4184 22.4417 73.4184 21.675C73.4184 20.925 73.5934 20.25 73.9434 19.65C74.31 19.05 74.9017 18.575 75.7184 18.225C76.535 17.875 77.6184 17.7 78.9684 17.7H82.8434V19.775H79.1934C78.1267 19.775 77.41 19.95 77.0434 20.3C76.6767 20.6333 76.4934 21.05 76.4934 21.55C76.4934 22.1167 76.7184 22.5667 77.1684 22.9C77.6184 23.2333 78.2434 23.4 79.0434 23.4C79.81 23.4 80.4934 23.225 81.0934 22.875C81.71 22.525 82.1517 22.0083 82.4184 21.325L82.9434 23.2C82.6434 23.9833 82.1017 24.5917 81.3184 25.025C80.5517 25.4583 79.5767 25.675 78.3934 25.675ZM89.5539 25.5V12.15H92.6789V25.5H89.5539ZM91.1289 9.95C90.5456 9.95 90.0622 9.76667 89.6789 9.4C89.3122 9.03333 89.1289 8.59167 89.1289 8.075C89.1289 7.54167 89.3122 7.1 89.6789 6.75C90.0622 6.38333 90.5456 6.2 91.1289 6.2C91.7122 6.2 92.1872 6.375 92.5539 6.725C92.9372 7.05833 93.1289 7.48333 93.1289 8C93.1289 8.55 92.9456 9.01667 92.5789 9.4C92.2122 9.76667 91.7289 9.95 91.1289 9.95ZM96.7805 25.5V6.95H99.9055V25.5H96.7805ZM110.007 25.675C108.64 25.675 107.424 25.3833 106.357 24.8C105.29 24.2 104.449 23.3833 103.832 22.35C103.215 21.3167 102.907 20.1417 102.907 18.825C102.907 17.4917 103.215 16.3167 103.832 15.3C104.449 14.2667 105.29 13.4583 106.357 12.875C107.424 12.2917 108.64 12 110.007 12C111.39 12 112.615 12.2917 113.682 12.875C114.765 13.4583 115.607 14.2583 116.207 15.275C116.824 16.2917 117.132 17.475 117.132 18.825C117.132 20.1417 116.824 21.3167 116.207 22.35C115.607 23.3833 114.765 24.2 113.682 24.8C112.615 25.3833 111.39 25.675 110.007 25.675ZM110.007 23C110.774 23 111.457 22.8333 112.057 22.5C112.657 22.1667 113.124 21.6833 113.457 21.05C113.807 20.4167 113.982 19.675 113.982 18.825C113.982 17.9583 113.807 17.2167 113.457 16.6C113.124 15.9667 112.657 15.4833 112.057 15.15C111.457 14.8167 110.782 14.65 110.032 14.65C109.265 14.65 108.582 14.8167 107.982 15.15C107.399 15.4833 106.932 15.9667 106.582 16.6C106.232 17.2167 106.057 17.9583 106.057 18.825C106.057 19.675 106.232 20.4167 106.582 21.05C106.932 21.6833 107.399 22.1667 107.982 22.5C108.582 22.8333 109.257 23 110.007 23ZM122.704 25.5L117.804 12.15H120.754L124.954 23.925H123.554L127.954 12.15H130.579L134.854 23.925H133.479L137.804 12.15H140.579L135.654 25.5H132.654L128.754 15.075H129.679L125.704 25.5H122.704ZM142.728 25.5V6.95H145.853V25.5H142.728Z" fill="#242043"/>
</svg>
