<svg width="146" height="33" viewBox="0 0 146 33" fill="none" xmlns="http://www.w3.org/2000/svg">
<path d="M0.431387 0L0 1.25388C2.14613 1.70856 4.07648 2.33605 5.80008 3.10955C3.91544 4.20471 2.67257 6.07713 2.67257 8.20415C2.67257 9.14873 2.91794 10.0431 3.35526 10.8417C1.42243 12.2568 0.254581 14.2743 0.254581 16.9223C0.254581 21.8339 4.05088 26.0759 9.54226 28.1106L6.82195 32.9999H8.62687L11.0712 28.607C11.3378 28.6819 11.6071 28.7523 11.8799 28.8169C12.1953 29.0087 12.5164 29.1817 12.8426 29.3372L11.6884 33H13.3962L14.3657 29.9202C14.9731 30.0971 15.5919 30.2137 16.2171 30.2681V32.9999H17.8727V30.2651C18.57 30.2021 19.2589 30.061 19.9326 29.8442L20.9258 32.9999H22.6309L21.4404 29.2184C21.7416 29.064 22.0383 28.8946 22.3294 28.7081C22.6136 28.6339 22.8953 28.5538 23.1742 28.468L25.6952 32.9999H27.5001L24.6833 27.9366C29.9295 25.8404 33.5183 21.6976 33.5183 16.9223C33.5183 14.3432 32.4102 12.3623 30.5668 10.9533C31.0436 10.1266 31.314 9.19328 31.314 8.20422C31.314 6.08477 30.0802 4.21826 28.2072 3.12143C29.9467 2.33383 31.879 1.70314 34 1.25381L33.5686 0C31.2425 0.492825 29.1207 1.19836 27.213 2.08471C24.1938 0.775511 20.3754 0.127584 16.5643 0.131059C12.9407 0.134394 9.32462 0.726937 6.4081 1.89945C4.61638 1.10767 2.62571 0.464889 0.431564 6.9452e-05L0.431387 0ZM16.5648 1.48709C19.7933 1.48403 23.0272 1.95302 25.6075 2.90108C21.6115 5.11726 18.7055 8.19623 17.0019 11.7812C15.2899 8.15829 12.3389 4.98106 8.09352 2.71832C10.5567 1.90223 13.5581 1.48973 16.5649 1.48681L16.5648 1.48709ZM9.15906 6.23834C10.8775 6.23834 12.2886 7.34484 12.2886 8.69274C12.2886 10.0408 10.8775 11.1474 9.15906 11.1474C7.4406 11.1474 6.02933 10.0406 6.02933 8.69253C6.02933 7.34456 7.4406 6.23814 9.15906 6.23814V6.23834ZM25.054 6.23834C26.7724 6.23834 28.1835 7.34484 28.1835 8.69274C28.1835 10.0408 26.7724 11.1474 25.054 11.1474C23.3353 11.1474 21.9242 10.0409 21.9242 8.69281C21.9242 7.34484 23.3352 6.23841 25.0537 6.23841L25.054 6.23834ZM15.2766 11.8455C15.6355 12.5645 15.943 13.3048 16.2 14.0632L16.9999 16.4233L17.7998 14.0632C18.0527 13.3151 18.3604 12.5791 18.7214 11.8589C19.9961 13.3509 22.0296 14.3179 24.3229 14.3179C25.602 14.3179 26.8 14.0159 27.8314 13.4912C27.4768 18.4146 26.1537 22.1585 24.3467 24.7081C22.2239 27.7034 19.5323 29.0355 16.9469 29.0051C14.3618 28.9746 11.6492 27.5686 9.52357 24.5526C7.71369 21.9846 6.39136 18.2628 6.03757 13.432C7.09496 13.9939 8.33597 14.3178 9.66379 14.3178C11.964 14.3178 14.0028 13.3449 15.2766 11.8453V11.8455ZM4.18048 11.9947C4.21883 12.0371 4.25701 12.0795 4.29652 12.1209C4.48829 17.7729 5.92551 22.1314 8.07475 25.181C8.38661 25.6244 8.72775 26.0546 9.09679 26.4701C4.78114 24.5061 1.91006 20.9599 1.91006 16.9225C1.91006 14.697 2.72731 13.1364 4.18056 11.9948L4.18048 11.9947ZM29.7167 12.0939C31.0923 13.2263 31.8626 14.761 31.8626 16.9225C31.8626 20.8397 29.1595 24.2943 25.0572 26.2901C25.3183 25.9808 25.564 25.6636 25.7937 25.3393C27.9341 22.3193 29.366 17.9629 29.5697 12.2423C29.6193 12.1932 29.6691 12.1443 29.7168 12.0939H29.7167ZM8.67913 16.1975C8.34669 16.6327 8.13914 17.2072 8.13914 17.8124C8.13914 19.2067 9.21053 20.3082 10.5149 20.3082C11.6248 20.3082 12.5836 19.5031 12.8366 18.3996C12.421 18.6844 11.909 18.8402 11.3789 18.8402C9.96338 18.8402 8.77258 17.6855 8.67913 16.1975ZM25.1473 16.3696C25.0538 17.8576 23.8633 19.0123 22.4477 19.0123C21.9175 19.0123 21.4057 18.8565 20.9898 18.5717C21.243 19.6753 22.2016 20.4804 23.3115 20.4804C24.6159 20.4804 25.6332 19.3789 25.6332 17.9846C25.6332 17.3793 25.4798 16.8048 25.1474 16.3696H25.1472H25.1473ZM19.0592 18.3827C18.7483 19.2926 17.7919 19.9935 16.8863 19.9935C16.0019 19.9935 15.0607 19.2947 14.7654 18.4295C14.6934 18.6656 14.6102 18.918 14.6102 19.1797C14.6102 20.5157 15.6369 21.5709 16.8866 21.5709C18.1363 21.5709 19.1628 20.5157 19.1628 19.1797C19.1628 18.9027 19.1398 18.6307 19.0594 18.3827H19.0592V18.3827ZM22.1631 23.0181C21.8588 24.1683 20.9045 25.0343 19.7315 25.0343C19.0016 25.0343 18.3362 24.7146 17.8692 24.1902C17.9346 25.4637 18.9379 26.4877 20.1455 26.4877C21.3951 26.4877 22.4216 25.3855 22.4216 24.0496C22.4216 23.6739 22.3062 23.3354 22.163 23.0181L22.1631 23.0181ZM11.9199 23.1117C11.8053 23.4014 11.7648 23.7156 11.7648 24.0497C11.7648 25.3855 12.7914 26.4877 14.041 26.4877C15.2486 26.4877 16.2002 25.4636 16.2655 24.1902C15.7985 24.7145 15.1331 25.0342 14.4031 25.0342C13.259 25.0342 12.2494 24.2187 11.92 23.1117L11.9199 23.1117Z" fill="white"/>
<path d="M62.9 12C63.9667 12 64.9083 12.2083 65.725 12.625C66.5583 13.0417 67.2083 13.6833 67.675 14.55C68.1417 15.4 68.375 16.5 68.375 17.85V25.5H65.25V18.25C65.25 17.0667 64.9917 16.1833 64.475 15.6C63.9583 15.0167 63.2167 14.725 62.25 14.725C61.5667 14.725 60.9583 14.875 60.425 15.175C59.9083 15.475 59.5 15.9167 59.2 16.5C58.9167 17.0833 58.775 17.825 58.775 18.725V25.5H55.65V18.25C55.65 17.0667 55.3917 16.1833 54.875 15.6C54.3583 15.0167 53.6167 14.725 52.65 14.725C51.9667 14.725 51.3583 14.875 50.825 15.175C50.3083 15.475 49.9 15.9167 49.6 16.5C49.3167 17.0833 49.175 17.825 49.175 18.725V25.5H46.05V12.15H49.025V15.7L48.5 14.65C48.95 13.7833 49.6 13.125 50.45 12.675C51.3167 12.225 52.3 12 53.4 12C54.65 12 55.7333 12.3083 56.65 12.925C57.5833 13.5417 58.2 14.475 58.5 15.725L57.275 15.3C57.7083 14.3 58.425 13.5 59.425 12.9C60.425 12.3 61.5833 12 62.9 12ZM80.5934 25.5V22.8L80.4184 22.225V17.5C80.4184 16.5833 80.1434 15.875 79.5934 15.375C79.0434 14.8583 78.21 14.6 77.0934 14.6C76.3434 14.6 75.6017 14.7167 74.8684 14.95C74.1517 15.1833 73.5434 15.5083 73.0434 15.925L71.8184 13.65C72.535 13.1 73.385 12.6917 74.3684 12.425C75.3684 12.1417 76.4017 12 77.4684 12C79.4017 12 80.8934 12.4667 81.9434 13.4C83.01 14.3167 83.5434 15.7417 83.5434 17.675V25.5H80.5934ZM76.3934 25.675C75.3934 25.675 74.5184 25.5083 73.7684 25.175C73.0184 24.825 72.435 24.35 72.0184 23.75C71.6184 23.1333 71.4184 22.4417 71.4184 21.675C71.4184 20.925 71.5934 20.25 71.9434 19.65C72.31 19.05 72.9017 18.575 73.7184 18.225C74.535 17.875 75.6184 17.7 76.9684 17.7H80.8434V19.775H77.1934C76.1267 19.775 75.41 19.95 75.0434 20.3C74.6767 20.6333 74.4934 21.05 74.4934 21.55C74.4934 22.1167 74.7184 22.5667 75.1684 22.9C75.6184 23.2333 76.2434 23.4 77.0434 23.4C77.81 23.4 78.4934 23.225 79.0934 22.875C79.71 22.525 80.1517 22.0083 80.4184 21.325L80.9434 23.2C80.6434 23.9833 80.1017 24.5917 79.3184 25.025C78.5517 25.4583 77.5767 25.675 76.3934 25.675ZM87.5539 25.5V12.15H90.6789V25.5H87.5539ZM89.1289 9.95C88.5456 9.95 88.0622 9.76667 87.6789 9.4C87.3122 9.03333 87.1289 8.59167 87.1289 8.075C87.1289 7.54167 87.3122 7.1 87.6789 6.75C88.0622 6.38333 88.5456 6.2 89.1289 6.2C89.7122 6.2 90.1872 6.375 90.5539 6.725C90.9372 7.05833 91.1289 7.48333 91.1289 8C91.1289 8.55 90.9456 9.01667 90.5789 9.4C90.2122 9.76667 89.7289 9.95 89.1289 9.95ZM94.7805 25.5V6.95H97.9055V25.5H94.7805ZM108.007 25.675C106.64 25.675 105.424 25.3833 104.357 24.8C103.29 24.2 102.449 23.3833 101.832 22.35C101.215 21.3167 100.907 20.1417 100.907 18.825C100.907 17.4917 101.215 16.3167 101.832 15.3C102.449 14.2667 103.29 13.4583 104.357 12.875C105.424 12.2917 106.64 12 108.007 12C109.39 12 110.615 12.2917 111.682 12.875C112.765 13.4583 113.607 14.2583 114.207 15.275C114.824 16.2917 115.132 17.475 115.132 18.825C115.132 20.1417 114.824 21.3167 114.207 22.35C113.607 23.3833 112.765 24.2 111.682 24.8C110.615 25.3833 109.39 25.675 108.007 25.675ZM108.007 23C108.774 23 109.457 22.8333 110.057 22.5C110.657 22.1667 111.124 21.6833 111.457 21.05C111.807 20.4167 111.982 19.675 111.982 18.825C111.982 17.9583 111.807 17.2167 111.457 16.6C111.124 15.9667 110.657 15.4833 110.057 15.15C109.457 14.8167 108.782 14.65 108.032 14.65C107.265 14.65 106.582 14.8167 105.982 15.15C105.399 15.4833 104.932 15.9667 104.582 16.6C104.232 17.2167 104.057 17.9583 104.057 18.825C104.057 19.675 104.232 20.4167 104.582 21.05C104.932 21.6833 105.399 22.1667 105.982 22.5C106.582 22.8333 107.257 23 108.007 23ZM120.704 25.5L115.804 12.15H118.754L122.954 23.925H121.554L125.954 12.15H128.579L132.854 23.925H131.479L135.804 12.15H138.579L133.654 25.5H130.654L126.754 15.075H127.679L123.704 25.5H120.704ZM140.728 25.5V6.95H143.853V25.5H140.728Z" fill="white"/>
</svg>
